# Blender v2.78 (sub 0) OBJ File: ''
# www.blender.org
mtllib best_experience_with_playing_music.mtl
o Text
v 3.733882 0.965329 1.373269
v 3.656959 0.965329 1.296346
v 3.656959 0.965329 1.065577
v 3.733882 0.965329 0.988653
v 4.118498 0.965329 0.988653
v 4.118498 0.965329 1.065577
v 3.733882 0.965329 1.065577
v 3.733882 0.965329 1.296346
v 4.118498 0.965329 1.296346
v 4.118498 0.965329 1.373269
v 3.503113 0.965329 0.911730
v 3.503113 0.965329 0.834807
v 3.580036 0.965329 0.834807
v 3.580036 0.965329 0.911730
v 3.503113 0.965329 1.373269
v 3.503113 0.965329 0.988653
v 3.580036 0.965329 0.988653
v 3.580036 0.965329 1.373269
v 2.887728 0.965329 1.373269
v 2.887728 0.965329 1.296346
v 3.349267 0.965329 1.296346
v 3.349267 0.965329 1.219423
v 2.964652 0.965329 1.219423
v 2.887728 0.965329 1.142500
v 2.887728 0.965329 1.065577
v 2.964652 0.965329 0.988653
v 3.272344 0.965329 0.988653
v 3.272344 0.965329 1.065577
v 2.964652 0.965329 1.065577
v 2.964652 0.965329 1.142500
v 3.349267 0.965329 1.142500
v 3.426190 0.965329 1.219423
v 3.426190 0.965329 1.296346
v 3.349267 0.965329 1.373269
v 2.349267 0.965329 1.373269
v 2.272344 0.965329 1.296346
v 2.272344 0.965329 0.988653
v 2.349267 0.965329 0.988653
v 2.349267 0.965329 1.296346
v 2.733882 0.965329 1.296346
v 2.733882 0.965329 0.988653
v 2.810805 0.965329 0.988653
v 2.810805 0.965329 1.373269
v 1.656959 0.965329 1.373269
v 1.656959 0.965329 0.911730
v 1.733882 0.965329 0.834807
v 2.118497 0.965329 0.834807
v 2.195421 0.965329 0.911730
v 2.195421 0.965329 1.373269
v 2.118497 0.965329 1.373269
v 2.118497 0.965329 0.911730
v 1.964651 0.965329 0.911730
v 1.964651 0.965329 1.219423
v 1.887728 0.965329 1.219423
v 1.887728 0.965329 0.911730
v 1.733882 0.965329 0.911730
v 1.733882 0.965329 1.373269
v 1.112488 0.965329 1.296346
v 1.112488 0.965329 1.065577
v 0.727872 0.965329 1.065577
v 0.727872 0.965329 1.296346
v 0.804796 0.965329 1.527115
v 0.804796 0.965329 1.450192
v 1.112488 0.965329 1.450192
v 1.112488 0.965329 1.373269
v 0.727872 0.965329 1.373269
v 0.650949 0.965329 1.296346
v 0.650949 0.965329 1.065577
v 0.727872 0.965329 0.988653
v 1.189411 0.965329 0.988653
v 1.189411 0.965329 1.450192
v 1.112488 0.965329 1.527115
v 0.035565 0.965329 1.373269
v 0.035565 0.965329 0.988653
v 0.497103 0.965329 0.988653
v 0.574026 0.965329 1.065577
v 0.574026 0.965329 1.373269
v 0.497103 0.965329 1.373269
v 0.497103 0.965329 1.065577
v 0.112488 0.965329 1.065577
v 0.112488 0.965329 1.373269
v -0.118281 0.965329 0.911730
v -0.118281 0.965329 0.834807
v -0.041358 0.965329 0.834807
v -0.041358 0.965329 0.911730
v -0.118281 0.965329 1.373269
v -0.118281 0.965329 0.988653
v -0.041358 0.965329 0.988653
v -0.041358 0.965329 1.373269
v -0.579820 0.965329 1.527115
v -0.579820 0.965329 1.450192
v -0.272128 0.965329 1.450192
v -0.272128 0.965329 1.373269
v -0.656743 0.965329 1.373269
v -0.733666 0.965329 1.296346
v -0.733666 0.965329 0.988653
v -0.656743 0.965329 0.988653
v -0.656743 0.965329 1.296346
v -0.272128 0.965329 1.296346
v -0.272128 0.965329 0.988653
v -0.195204 0.965329 0.988653
v -0.195204 0.965329 1.450192
v -0.272128 0.965329 1.527115
v -0.887512 0.965329 1.296346
v -0.887512 0.965329 1.219423
v -1.272128 0.965329 1.219423
v -1.272128 0.965329 1.296346
v -1.272128 0.965329 1.373269
v -1.349051 0.965329 1.296346
v -1.349051 0.965329 1.219423
v -1.272128 0.965329 1.142500
v -0.887512 0.965329 1.142500
v -0.887512 0.965329 1.065577
v -1.195204 0.965329 1.065577
v -1.195204 0.965329 0.988653
v -0.887512 0.965329 0.988653
v -0.810589 0.965329 1.065577
v -0.810589 0.965329 1.373269
v -1.502897 0.965329 1.373269
v -1.579820 0.965329 1.296346
v -1.579820 0.965329 0.834807
v -1.502897 0.965329 0.834807
v -1.502897 0.965329 1.296346
v -1.425974 0.965329 1.296346
v -1.425974 0.965329 1.373269
v -1.733666 0.965329 1.065577
v -1.733666 0.965329 0.911730
v -2.118281 0.965329 0.911730
v -2.118281 0.965329 1.065577
v -2.195205 0.965329 1.373269
v -2.195205 0.965329 0.834807
v -1.733666 0.965329 0.834807
v -1.656743 0.965329 0.911730
v -1.656743 0.965329 1.065577
v -1.733666 0.965329 1.142500
v -2.118281 0.965329 1.142500
v -2.118281 0.965329 1.373269
v 1.346262 0.965329 0.373269
v 1.346262 0.965329 -0.165193
v 1.423185 0.965329 -0.165193
v 1.423185 0.965329 -0.011347
v 1.807801 0.965329 -0.011347
v 1.884724 0.965329 0.065577
v 1.884724 0.965329 0.373269
v 1.807801 0.965329 0.373269
v 1.807801 0.965329 0.065577
v 1.423185 0.965329 0.065577
v 1.423185 0.965329 0.373269
v 0.961647 0.965329 0.373269
v 0.884724 0.965329 0.296346
v 0.884724 0.965329 0.065577
v 0.807800 0.965329 0.065577
v 0.807800 0.965329 -0.011347
v 0.884724 0.965329 -0.011347
v 0.884724 0.965329 -0.088270
v 0.961647 0.965329 -0.088270
v 0.961647 0.965329 -0.011347
v 1.192416 0.965329 -0.011347
v 1.192416 0.965329 0.065577
v 0.961647 0.965329 0.065577
v 0.961647 0.965329 0.296346
v 1.269339 0.965329 0.296346
v 1.269339 0.965329 0.373269
v 0.653954 0.965329 -0.088270
v 0.653954 0.965329 -0.165193
v 0.730877 0.965329 -0.165193
v 0.730877 0.965329 -0.088270
v 0.653954 0.965329 0.373269
v 0.653954 0.965329 -0.011347
v 0.730877 0.965329 -0.011347
v 0.730877 0.965329 0.373269
v 0.115493 0.965329 0.373269
v 0.038570 0.965329 0.296346
v 0.038570 0.965329 -0.011347
v 0.115493 0.965329 -0.011347
v 0.115493 0.965329 0.296346
v 0.269339 0.965329 0.296346
v 0.269339 0.965329 0.065577
v 0.346262 0.965329 0.065577
v 0.346262 0.965329 0.296346
v 0.500108 0.965329 0.296346
v 0.500108 0.965329 -0.011347
v 0.577031 0.965329 -0.011347
v 0.577031 0.965329 0.296346
v 0.500108 0.965329 0.373269
v 4.964652 0.965329 -0.857500
v 4.964652 0.965329 -0.934423
v 4.580036 0.965329 -0.934423
v 4.580036 0.965329 -0.857500
v 4.580036 0.965329 -0.626731
v 4.503113 0.965329 -0.703654
v 4.503113 0.965329 -0.934423
v 4.580036 0.965329 -1.011347
v 4.964652 0.965329 -1.011347
v 5.041575 0.965329 -0.934423
v 5.041575 0.965329 -0.857500
v 4.964652 0.965329 -0.780577
v 4.580036 0.965329 -0.780577
v 4.580036 0.965329 -0.703654
v 4.887729 0.965329 -0.703654
v 4.887729 0.965329 -0.626731
v 4.041574 0.965329 -0.626731
v 3.964652 0.965329 -0.703654
v 3.964652 0.965329 -0.934423
v 4.041574 0.965329 -1.011347
v 4.426190 0.965329 -1.011347
v 4.426190 0.965329 -0.934423
v 4.041574 0.965329 -0.934423
v 4.041574 0.965329 -0.703654
v 4.426190 0.965329 -0.703654
v 4.426190 0.965329 -0.626731
v 3.349267 0.965329 -0.626731
v 3.349267 0.965329 -1.011347
v 3.810805 0.965329 -1.011347
v 3.887729 0.965329 -0.934423
v 3.887729 0.965329 -0.626731
v 3.810805 0.965329 -0.626731
v 3.810805 0.965329 -0.934423
v 3.426190 0.965329 -0.934423
v 3.426190 0.965329 -0.626731
v 3.195421 0.965329 -0.857500
v 3.195421 0.965329 -0.934423
v 2.810805 0.965329 -0.934423
v 2.810805 0.965329 -0.857500
v 2.810805 0.965329 -0.626731
v 2.733882 0.965329 -0.703654
v 2.733882 0.965329 -0.934423
v 2.810805 0.965329 -1.011347
v 3.195421 0.965329 -1.011347
v 3.272344 0.965329 -0.934423
v 3.272344 0.965329 -0.857500
v 3.195421 0.965329 -0.780577
v 2.810805 0.965329 -0.780577
v 2.810805 0.965329 -0.703654
v 3.118498 0.965329 -0.703654
v 3.118498 0.965329 -0.626731
v 2.580036 0.965329 -1.088270
v 2.580036 0.965329 -1.165193
v 2.656959 0.965329 -1.165193
v 2.656959 0.965329 -1.088270
v 2.580036 0.965329 -0.626731
v 2.580036 0.965329 -1.011347
v 2.656959 0.965329 -1.011347
v 2.656959 0.965329 -0.626731
v 2.041574 0.965329 -0.626731
v 2.041574 0.965329 -0.934423
v 2.118497 0.965329 -1.011347
v 2.503113 0.965329 -1.011347
v 2.503113 0.965329 -0.934423
v 2.118497 0.965329 -0.934423
v 2.118497 0.965329 -0.626731
v 1.887728 0.965329 -0.857500
v 1.887728 0.965329 -0.934423
v 1.503113 0.965329 -0.934423
v 1.503113 0.965329 -0.857500
v 1.503113 0.965329 -0.626731
v 1.426190 0.965329 -0.703654
v 1.426190 0.965329 -0.934423
v 1.503113 0.965329 -1.011347
v 1.887728 0.965329 -1.011347
v 1.964651 0.965329 -0.934423
v 1.964651 0.965329 -0.857500
v 1.887728 0.965329 -0.780577
v 1.503113 0.965329 -0.780577
v 1.503113 0.965329 -0.703654
v 1.810805 0.965329 -0.703654
v 1.810805 0.965329 -0.626731
v 1.272344 0.965329 -0.703654
v 1.272344 0.965329 -0.934423
v 0.964651 0.965329 -0.934423
v 0.964651 0.965329 -0.703654
v 0.887728 0.965329 -0.472885
v 0.887728 0.965329 -1.011347
v 1.272344 0.965329 -1.011347
v 1.349267 0.965329 -0.934423
v 1.349267 0.965329 -0.703654
v 1.272344 0.965329 -0.626731
v 0.964651 0.965329 -0.626731
v 0.964651 0.965329 -0.472885
v 0.272344 0.965329 -0.626731
v 0.272344 0.965329 -0.703654
v 0.349267 0.965329 -0.780577
v 0.349267 0.965329 -0.857500
v 0.272344 0.965329 -0.934423
v 0.272344 0.965329 -1.011347
v 0.349267 0.965329 -1.011347
v 0.349267 0.965329 -0.934423
v 0.426190 0.965329 -0.857500
v 0.656959 0.965329 -0.857500
v 0.733882 0.965329 -0.934423
v 0.733882 0.965329 -1.011347
v 0.810805 0.965329 -1.011347
v 0.810805 0.965329 -0.934423
v 0.733882 0.965329 -0.857500
v 0.733882 0.965329 -0.780577
v 0.810805 0.965329 -0.703654
v 0.810805 0.965329 -0.626731
v 0.733882 0.965329 -0.626731
v 0.733882 0.965329 -0.703654
v 0.656959 0.965329 -0.780577
v 0.426190 0.965329 -0.780577
v 0.349267 0.965329 -0.703654
v 0.349267 0.965329 -0.626731
v -0.343041 0.965329 -0.626731
v -0.343041 0.965329 -1.165193
v -0.112272 0.965329 -1.165193
v -0.112272 0.965329 -1.088270
v -0.266118 0.965329 -1.088270
v -0.266118 0.965329 -0.934423
v 0.041574 0.965329 -0.934423
v 0.041574 0.965329 -0.857500
v -0.266118 0.965329 -0.857500
v -0.266118 0.965329 -0.703654
v 0.195421 0.965329 -0.703654
v 0.195421 0.965329 -0.626731
v -1.118281 0.965329 -0.626731
v -1.195204 0.965329 -0.703654
v -1.195204 0.965329 -0.934423
v -1.272128 0.965329 -0.934423
v -1.272128 0.965329 -1.011347
v -1.195204 0.965329 -1.011347
v -1.195204 0.965329 -1.088270
v -1.118281 0.965329 -1.088270
v -1.118281 0.965329 -1.011347
v -0.887512 0.965329 -1.011347
v -0.887512 0.965329 -0.934423
v -1.118281 0.965329 -0.934423
v -1.118281 0.965329 -0.703654
v -0.810589 0.965329 -0.703654
v -0.810589 0.965329 -0.626731
v -1.887512 0.965329 -0.626731
v -1.887512 0.965329 -0.703654
v -1.425974 0.965329 -0.703654
v -1.425974 0.965329 -0.780577
v -1.810589 0.965329 -0.780577
v -1.887512 0.965329 -0.857500
v -1.887512 0.965329 -0.934423
v -1.810589 0.965329 -1.011347
v -1.502897 0.965329 -1.011347
v -1.502897 0.965329 -0.934423
v -1.810589 0.965329 -0.934423
v -1.810589 0.965329 -0.857500
v -1.425974 0.965329 -0.857500
v -1.349051 0.965329 -0.780577
v -1.349051 0.965329 -0.703654
v -1.425974 0.965329 -0.626731
v -2.041358 0.965329 -0.857500
v -2.041358 0.965329 -0.934423
v -2.425974 0.965329 -0.934423
v -2.425974 0.965329 -0.857500
v -2.425974 0.965329 -0.626731
v -2.502897 0.965329 -0.703654
v -2.502897 0.965329 -0.934423
v -2.425974 0.965329 -1.011347
v -2.041358 0.965329 -1.011347
v -1.964435 0.965329 -0.934423
v -1.964435 0.965329 -0.857500
v -2.041358 0.965329 -0.780577
v -2.425974 0.965329 -0.780577
v -2.425974 0.965329 -0.703654
v -2.118281 0.965329 -0.703654
v -2.118281 0.965329 -0.626731
v -2.656743 0.965329 -0.703654
v -2.656743 0.965329 -0.857500
v -3.041358 0.965329 -0.857500
v -3.041358 0.965329 -0.703654
v -2.810589 0.965329 -0.934423
v -2.810589 0.965329 -1.088270
v -3.041358 0.965329 -1.088270
v -3.041358 0.965329 -0.934423
v -3.118281 0.965329 -0.626731
v -3.118281 0.965329 -1.165193
v -2.810589 0.965329 -1.165193
v -2.733666 0.965329 -1.088270
v -2.733666 0.965329 -0.934423
v -2.656743 0.965329 -0.934423
v -2.579820 0.965329 -0.857500
v -2.579820 0.965329 -0.703654
v -2.656743 0.965329 -0.626731
vn 0.0000 1.0000 0.0000
vn 0.0000 0.0000 1.0000
vn 0.0000 0.0000 -1.0000
usemtl None
s off
f 3//1 5//1 4//1
f 3//1 6//1 5//1
f 2//1 7//1 3//1
f 7//2 6//2 3//2
f 2//1 8//1 7//1
f 1//1 8//1 2//1
f 1//1 9//1 8//1
f 1//1 10//1 9//1
f 15//1 17//1 16//1
f 15//1 18//1 17//1
f 11//1 13//1 12//1
f 11//1 14//1 13//1
f 25//1 27//1 26//1
f 25//1 28//1 27//1
f 24//1 29//1 25//1
f 29//2 28//2 25//2
f 24//1 30//1 29//1
f 23//1 30//1 24//1
f 23//1 31//1 30//1
f 23//1 32//1 31//1
f 22//3 32//3 23//3
f 21//1 32//1 22//1
f 21//1 33//1 32//1
f 19//1 21//1 20//1
f 19//1 33//1 21//1
f 19//1 34//1 33//1
f 36//1 38//1 37//1
f 36//1 39//1 38//1
f 40//1 42//1 41//1
f 40//1 43//1 42//1
f 35//1 39//1 36//1
f 35//1 40//1 39//1
f 35//1 43//1 40//1
f 45//1 47//1 46//1
f 45//1 48//1 47//1
f 44//1 56//1 45//1
f 56//2 48//2 45//2
f 44//1 57//1 56//1
f 55//2 48//2 56//2
f 54//1 52//1 55//1
f 52//2 48//2 55//2
f 54//1 53//1 52//1
f 51//2 48//2 52//2
f 50//1 48//1 51//1
f 50//1 49//1 48//1
f 68//1 70//1 69//1
f 68//1 60//1 70//1
f 60//1 59//1 70//1
f 59//1 71//1 70//1
f 67//1 60//1 68//1
f 67//1 61//1 60//1
f 58//1 71//1 59//1
f 66//1 61//1 67//1
f 66//1 58//1 61//1
f 66//1 65//1 58//1
f 65//1 71//1 58//1
f 64//1 71//1 65//1
f 62//1 64//1 63//1
f 62//1 71//1 64//1
f 62//1 72//1 71//1
f 73//1 80//1 74//1
f 80//1 75//1 74//1
f 80//1 76//1 75//1
f 73//1 81//1 80//1
f 79//3 76//3 80//3
f 78//1 76//1 79//1
f 78//1 77//1 76//1
f 86//1 88//1 87//1
f 86//1 89//1 88//1
f 82//1 84//1 83//1
f 82//1 85//1 84//1
f 95//1 97//1 96//1
f 95//1 98//1 97//1
f 99//1 101//1 100//1
f 99//1 102//1 101//1
f 94//1 98//1 95//1
f 94//1 99//1 98//1
f 94//1 93//1 99//1
f 93//1 102//1 99//1
f 92//1 102//1 93//1
f 90//1 92//1 91//1
f 90//1 102//1 92//1
f 90//1 103//1 102//1
f 114//1 116//1 115//1
f 114//1 117//1 116//1
f 113//2 117//2 114//2
f 112//1 117//1 113//1
f 112//1 118//1 117//1
f 110//1 112//1 111//1
f 110//1 106//1 112//1
f 106//1 105//1 112//1
f 105//1 118//1 112//1
f 109//1 106//1 110//1
f 109//1 107//1 106//1
f 104//1 118//1 105//1
f 108//1 107//1 109//1
f 108//1 104//1 107//1
f 108//1 118//1 104//1
f 120//1 122//1 121//1
f 120//1 123//1 122//1
f 119//1 123//1 120//1
f 119//1 124//1 123//1
f 119//1 125//1 124//1
f 130//1 128//1 131//1
f 128//1 132//1 131//1
f 128//1 133//1 132//1
f 130//1 129//1 128//1
f 127//2 133//2 128//2
f 126//1 133//1 127//1
f 126//1 134//1 133//1
f 130//1 136//1 129//1
f 136//1 126//1 129//1
f 136//1 134//1 126//1
f 136//1 135//1 134//1
f 130//1 137//1 136//1
f 138//1 140//1 139//1
f 138//1 141//1 140//1
f 138//1 147//1 141//1
f 147//1 142//1 141//1
f 147//1 143//1 142//1
f 138//1 148//1 147//1
f 146//3 143//3 147//3
f 145//1 143//1 146//1
f 145//1 144//1 143//1
f 154//1 156//1 155//1
f 154//1 157//1 156//1
f 152//1 154//1 153//1
f 152//1 157//1 154//1
f 152//1 158//1 157//1
f 152//1 159//1 158//1
f 151//2 159//2 152//2
f 150//1 160//1 151//1
f 160//2 159//2 151//2
f 150//1 161//1 160//1
f 149//1 161//1 150//1
f 149//1 162//1 161//1
f 149//1 163//1 162//1
f 168//1 170//1 169//1
f 168//1 171//1 170//1
f 164//1 166//1 165//1
f 164//1 167//1 166//1
f 173//1 175//1 174//1
f 173//1 176//1 175//1
f 181//1 183//1 182//1
f 181//1 184//1 183//1
f 177//1 179//1 178//1
f 177//1 180//1 179//1
f 172//1 176//1 173//1
f 172//1 177//1 176//1
f 172//1 180//1 177//1
f 172//1 181//1 180//1
f 172//1 184//1 181//1
f 172//1 185//1 184//1
f 192//1 194//1 193//1
f 192//1 195//1 194//1
f 191//1 188//1 192//1
f 188//2 195//2 192//2
f 191//1 189//1 188//1
f 187//2 195//2 188//2
f 186//1 195//1 187//1
f 186//1 196//1 195//1
f 191//1 198//1 189//1
f 198//1 186//1 189//1
f 198//1 196//1 186//1
f 198//1 197//1 196//1
f 191//1 199//1 198//1
f 190//1 199//1 191//1
f 190//1 200//1 199//1
f 190//1 201//1 200//1
f 204//1 206//1 205//1
f 204//1 207//1 206//1
f 203//1 208//1 204//1
f 208//3 207//3 204//3
f 203//1 209//1 208//1
f 202//1 209//1 203//1
f 202//1 210//1 209//1
f 202//1 211//1 210//1
f 212//1 219//1 213//1
f 219//1 214//1 213//1
f 219//1 215//1 214//1
f 212//1 220//1 219//1
f 218//2 215//2 219//2
f 217//1 215//1 218//1
f 217//1 216//1 215//1
f 227//1 229//1 228//1
f 227//1 230//1 229//1
f 226//1 223//1 227//1
f 223//2 230//2 227//2
f 226//1 224//1 223//1
f 222//2 230//2 223//2
f 221//1 230//1 222//1
f 221//1 231//1 230//1
f 226//1 233//1 224//1
f 233//1 221//1 224//1
f 233//1 231//1 221//1
f 233//1 232//1 231//1
f 226//1 234//1 233//1
f 225//1 234//1 226//1
f 225//1 235//1 234//1
f 225//1 236//1 235//1
f 241//1 243//1 242//1
f 241//1 244//1 243//1
f 237//1 239//1 238//1
f 237//1 240//1 239//1
f 246//1 248//1 247//1
f 246//1 249//1 248//1
f 245//1 250//1 246//1
f 250//3 249//3 246//3
f 245//1 251//1 250//1
f 258//1 260//1 259//1
f 258//1 261//1 260//1
f 257//1 254//1 258//1
f 254//2 261//2 258//2
f 257//1 255//1 254//1
f 253//3 261//3 254//3
f 252//1 261//1 253//1
f 252//1 262//1 261//1
f 257//1 264//1 255//1
f 264//1 252//1 255//1
f 264//1 262//1 252//1
f 264//1 263//1 262//1
f 257//1 265//1 264//1
f 256//1 265//1 257//1
f 256//1 266//1 265//1
f 256//1 267//1 266//1
f 272//1 270//1 273//1
f 270//1 274//1 273//1
f 270//1 275//1 274//1
f 272//1 271//1 270//1
f 269//2 275//2 270//2
f 268//1 275//1 269//1
f 268//1 276//1 275//1
f 272//1 278//1 271//1
f 278//1 268//1 271//1
f 278//1 276//1 268//1
f 278//1 277//1 276//1
f 272//1 279//1 278//1
f 284//1 286//1 285//1
f 284//1 287//1 286//1
f 290//1 292//1 291//1
f 290//1 293//1 292//1
f 283//1 287//1 284//1
f 283//1 288//1 287//1
f 289//1 293//1 290//1
f 289//1 294//1 293//1
f 282//1 288//1 283//1
f 282//1 289//1 288//1
f 282//1 294//1 289//1
f 282//1 295//1 294//1
f 281//1 301//1 282//1
f 301//2 295//2 282//2
f 281//1 302//1 301//1
f 300//2 295//2 301//2
f 299//1 295//1 300//1
f 299//1 296//1 295//1
f 280//1 302//1 281//1
f 280//1 303//1 302//1
f 298//1 296//1 299//1
f 298//1 297//1 296//1
f 304//1 308//1 305//1
f 308//1 306//1 305//1
f 308//1 307//1 306//1
f 304//1 309//1 308//1
f 304//1 312//1 309//1
f 312//1 310//1 309//1
f 312//1 311//1 310//1
f 304//1 313//1 312//1
f 304//1 314//1 313//1
f 304//1 315//1 314//1
f 321//1 323//1 322//1
f 321//1 324//1 323//1
f 319//1 321//1 320//1
f 319//1 324//1 321//1
f 319//1 325//1 324//1
f 319//1 326//1 325//1
f 318//2 326//2 319//2
f 317//1 327//1 318//1
f 327//2 326//2 318//2
f 317//1 328//1 327//1
f 316//1 328//1 317//1
f 316//1 329//1 328//1
f 316//1 330//1 329//1
f 337//1 339//1 338//1
f 337//1 340//1 339//1
f 336//1 341//1 337//1
f 341//2 340//2 337//2
f 336//1 342//1 341//1
f 335//1 342//1 336//1
f 335//1 343//1 342//1
f 335//1 344//1 343//1
f 334//3 344//3 335//3
f 333//1 344//1 334//1
f 333//1 345//1 344//1
f 331//1 333//1 332//1
f 331//1 345//1 333//1
f 331//1 346//1 345//1
f 353//1 355//1 354//1
f 353//1 356//1 355//1
f 352//1 349//1 353//1
f 349//2 356//2 353//2
f 352//1 350//1 349//1
f 348//2 356//2 349//2
f 347//1 356//1 348//1
f 347//1 357//1 356//1
f 352//1 359//1 350//1
f 359//1 347//1 350//1
f 359//1 357//1 347//1
f 359//1 358//1 357//1
f 352//1 360//1 359//1
f 351//1 360//1 352//1
f 351//1 361//1 360//1
f 351//1 362//1 361//1
f 371//1 369//1 372//1
f 369//1 373//1 372//1
f 369//1 374//1 373//1
f 371//1 370//1 369//1
f 368//2 374//2 369//2
f 367//1 374//1 368//1
f 367//1 375//1 374//1
f 371//1 365//1 370//1
f 365//1 367//1 370//1
f 365//1 375//1 367//1
f 365//1 376//1 375//1
f 365//1 377//1 376//1
f 371//1 366//1 365//1
f 364//2 377//2 365//2
f 363//1 377//1 364//1
f 363//1 378//1 377//1
f 371//1 363//1 366//1
f 371//1 378//1 363//1
f 371//1 379//1 378//1
