# Blender v2.78 (sub 0) OBJ File: ''
# www.blender.org
mtllib murs.mtl
o Vert
v 8.000000 0.000000 8.000000
v -8.000000 0.000000 8.000000
v 8.000000 0.000000 -8.000000
v -8.000000 0.000000 -8.000000
v 7.600000 0.000000 7.600000
v -7.600000 0.000000 7.600000
v 7.600000 0.000000 -7.600000
v -7.600000 0.000000 -7.600000
v 7.600000 0.000000 -1.500000
v 8.000000 0.000000 -1.500000
v 7.600000 0.000000 1.500000
v 8.000000 0.000000 1.500000
v 8.000000 10.000000 8.000000
v 8.000000 10.000000 -8.000000
v 7.600000 10.000000 7.600000
v 7.600000 10.000000 -7.600000
v 7.600000 7.000000 -1.500000
v 8.000000 7.000000 -1.500000
v 7.600000 7.000000 1.500000
v 8.000000 7.000000 1.500000
v 7.600000 0.500000 7.600000
v -7.600000 0.500000 7.600000
v 7.600000 0.500000 -7.600000
v -7.600000 0.500000 -7.600000
v 7.600000 0.500000 -1.500000
v 7.600000 0.500000 1.500000
v -8.000000 10.000000 8.000000
v -8.000000 10.000000 -8.000000
v -7.600000 10.000000 7.600000
v -7.600000 10.000000 -7.600000
v 8.000000 0.500000 -1.500000
v 8.000000 0.500000 1.500000
v -8.000000 2.500000 -2.500000
v -7.600000 2.500000 -2.500000
v -8.000000 2.500000 2.500000
v -7.600000 2.500000 2.500000
v -8.000000 8.000000 -2.500000
v -8.000000 8.000000 2.500000
v -7.600000 8.000000 -2.500000
v -7.600000 8.000000 2.500000
v -7.350000 2.500000 -2.500000
v -7.350000 2.500000 2.500000
v -7.350000 8.000000 -2.500000
v -7.350000 8.000000 2.500000
v -7.350000 2.275000 -2.750000
v -7.350000 2.275000 2.750000
v -7.350000 8.225000 -2.750000
v -7.350000 8.225000 2.750000
v -8.350000 2.275000 -2.750000
v -8.350000 2.275000 2.750000
v -8.350000 8.225000 -2.750000
v -8.350000 8.225000 2.750000
v -8.300000 2.500000 -2.500000
v -8.300000 2.500000 2.500000
v -8.300000 8.000000 -2.500000
v -8.300000 8.000000 2.500000
v 7.500000 0.000000 -1.662713
v 7.500000 0.000000 1.662713
v 7.500000 7.194849 -1.662713
v 7.500000 7.194849 1.662713
v 8.100000 0.000000 1.662713
v 8.100000 0.000000 -1.662713
v 8.100000 7.194849 -1.662713
v 8.100000 7.194849 1.662713
v 8.100000 0.000000 -1.500000
v 8.100000 0.000000 1.500000
v 8.100000 7.000000 -1.500000
v 8.100000 7.000000 1.500000
v 8.100000 0.500000 -1.500000
v 8.100000 0.500000 1.500000
v 7.500000 0.000000 -1.500000
v 7.500000 0.000000 1.500000
v 7.500000 7.000000 -1.500000
v 7.500000 7.000000 1.500000
v 7.500000 0.500000 -1.500000
v 7.500000 0.500000 1.500000
vn 0.0000 0.0000 1.0000
vn 1.0000 0.0000 0.0000
vn -1.0000 0.0000 0.0000
vn 0.0000 0.0000 -1.0000
vn 0.0000 1.0000 0.0000
vn 0.0000 -1.0000 0.0000
vn -0.9762 0.2169 0.0000
vn -0.9762 -0.2169 0.0000
vn -0.9806 0.0000 -0.1961
vn -0.9806 0.0000 0.1961
usemtl Walls
s off
f 2//1 13//1 27//1
f 1//2 32//2 20//2
f 18//2 31//2 3//2
f 18//2 13//2 20//2
f 23//3 17//3 16//3
f 21//3 19//3 26//3
f 15//3 17//3 19//3
f 14//4 4//4 28//4
f 24//1 16//1 30//1
f 29//4 21//4 22//4
f 28//3 33//3 37//3
f 38//3 28//3 37//3
f 27//3 35//3 2//3
f 33//3 2//3 35//3
f 28//5 29//5 30//5
f 13//5 29//5 27//5
f 14//5 15//5 13//5
f 28//5 16//5 14//5
f 10//5 11//5 12//5
f 39//2 24//2 30//2
f 22//2 34//2 36//2
f 36//2 29//2 22//2
f 40//2 30//2 29//2
f 12//5 65//5 10//5
f 2//1 1//1 13//1
f 20//2 13//2 1//2
f 1//2 12//2 32//2
f 10//2 3//2 31//2
f 14//2 18//2 3//2
f 18//2 14//2 13//2
f 23//3 25//3 17//3
f 21//3 15//3 19//3
f 15//3 16//3 17//3
f 14//4 3//4 4//4
f 24//1 23//1 16//1
f 29//4 15//4 21//4
f 28//3 4//3 33//3
f 38//3 27//3 28//3
f 27//3 38//3 35//3
f 33//3 4//3 2//3
f 28//5 27//5 29//5
f 13//5 15//5 29//5
f 14//5 16//5 15//5
f 28//5 30//5 16//5
f 10//5 9//5 11//5
f 39//2 34//2 24//2
f 22//2 24//2 34//2
f 36//2 40//2 29//2
f 40//2 39//2 30//2
f 12//5 66//5 65//5
usemtl Window
f 37//3 35//3 38//3
f 37//3 33//3 35//3
usemtl Ceiling
f 16//6 29//6 30//6
f 16//6 15//6 29//6
usemtl Lining
f 11//4 32//4 12//4
f 26//4 20//4 32//4
f 26//3 5//3 21//3
f 21//4 6//4 22//4
f 22//2 8//2 24//2
f 7//1 24//1 8//1
f 9//3 23//3 7//3
f 25//1 10//1 31//1
f 18//6 19//6 17//6
f 18//1 25//1 31//1
f 35//4 40//4 36//4
f 37//1 34//1 39//1
f 34//5 35//5 36//5
f 37//6 40//6 38//6
f 48//1 50//1 46//1
f 50//6 45//6 46//6
f 49//4 47//4 45//4
f 47//5 52//5 48//5
f 33//5 54//5 35//5
f 37//1 53//1 33//1
f 54//4 38//4 35//4
f 38//6 55//6 37//6
f 50//7 53//7 49//7
f 36//5 41//5 34//5
f 44//4 36//4 40//4
f 34//1 43//1 39//1
f 43//6 40//6 39//6
f 47//2 44//2 43//2
f 41//2 47//2 43//2
f 42//2 45//2 41//2
f 48//2 42//2 44//2
f 55//8 52//8 51//8
f 52//9 54//9 50//9
f 49//10 55//10 51//10
f 64//5 59//5 60//5
f 63//4 57//4 59//4
f 61//1 60//1 58//1
f 18//6 68//6 20//6
f 31//1 67//1 18//1
f 68//4 32//4 20//4
f 70//4 12//4 32//4
f 65//1 31//1 10//1
f 64//2 67//2 63//2
f 67//2 69//2 63//2
f 61//2 70//2 64//2
f 60//3 76//3 58//3
f 59//3 74//3 60//3
f 73//6 19//6 74//6
f 17//1 75//1 25//1
f 9//1 75//1 71//1
f 57//3 75//3 59//3
f 26//4 74//4 19//4
f 11//4 76//4 26//4
f 11//4 26//4 32//4
f 26//4 19//4 20//4
f 26//3 11//3 5//3
f 21//4 5//4 6//4
f 22//2 6//2 8//2
f 7//1 23//1 24//1
f 9//3 25//3 23//3
f 25//1 9//1 10//1
f 18//6 20//6 19//6
f 18//1 17//1 25//1
f 35//4 38//4 40//4
f 37//1 33//1 34//1
f 34//5 33//5 35//5
f 37//6 39//6 40//6
f 48//1 52//1 50//1
f 50//6 49//6 45//6
f 49//4 51//4 47//4
f 47//5 51//5 52//5
f 33//5 53//5 54//5
f 37//1 55//1 53//1
f 54//4 56//4 38//4
f 38//6 56//6 55//6
f 50//7 54//7 53//7
f 36//5 42//5 41//5
f 44//4 42//4 36//4
f 34//1 41//1 43//1
f 43//6 44//6 40//6
f 47//2 48//2 44//2
f 41//2 45//2 47//2
f 42//2 46//2 45//2
f 48//2 46//2 42//2
f 55//8 56//8 52//8
f 52//9 56//9 54//9
f 49//10 53//10 55//10
f 64//5 63//5 59//5
f 63//4 62//4 57//4
f 61//1 64//1 60//1
f 18//6 67//6 68//6
f 31//1 69//1 67//1
f 68//4 70//4 32//4
f 70//4 66//4 12//4
f 65//1 69//1 31//1
f 64//2 68//2 67//2
f 62//2 63//2 69//2
f 69//2 65//2 62//2
f 68//2 64//2 70//2
f 61//2 66//2 70//2
f 72//3 58//3 76//3
f 60//3 74//3 76//3
f 59//3 73//3 74//3
f 73//6 17//6 19//6
f 17//1 73//1 75//1
f 9//1 25//1 75//1
f 73//3 59//3 75//3
f 57//3 71//3 75//3
f 26//4 76//4 74//4
f 11//4 72//4 76//4
usemtl Floor
f 9//5 6//5 11//5
f 5//5 11//5 6//5
f 9//5 7//5 8//5
f 8//5 6//5 9//5
l 72 71
