# Blender v2.78 (sub 0) OBJ File: ''
# www.blender.org
mtllib lit2places.mtl
o Plane.001
v 2.970000 -0.674155 -4.729218
v -2.970000 -0.674155 -4.729218
v -3.240000 -0.674155 -5.404219
v 3.240000 -0.674155 -5.404219
v -2.970000 -0.674157 3.438281
v 2.970000 -0.674157 3.438281
v 3.240000 -0.674157 3.775782
v -3.240000 -0.674157 3.775782
v 2.970000 -0.336655 -5.066719
v 3.240000 -0.336655 -5.404219
v -3.240000 -0.336655 -5.404219
v -2.970000 -0.336655 -5.066719
v -2.970000 -0.336657 3.438281
v -3.240000 -0.336657 3.775782
v -3.240000 2.565843 3.775783
v -2.970000 2.363343 3.438282
v 2.970000 -0.336657 3.438281
v 3.240000 -0.336657 3.775782
v 2.970000 -0.336656 0.940781
v -2.970000 -0.336656 0.940781
v 3.240000 2.565843 3.775783
v 2.970000 2.363343 3.438282
v 2.970000 -1.794655 -4.729218
v 2.970000 -1.794657 3.438281
v -2.970000 -1.794655 -4.729218
v -2.970000 -1.794657 3.438281
v 2.970000 1.013344 -5.066719
v 2.970000 1.013343 0.940781
v -2.970000 1.013344 -5.066719
v -2.970000 1.013343 0.940781
v -2.970000 1.013342 3.438281
v 2.970000 1.013342 3.438281
vn -0.0000 -1.0000 -0.0000
vn -0.0000 1.0000 0.0000
vn -0.7809 0.0000 -0.6247
vn 0.0000 -0.0000 1.0000
vn 0.0000 0.7071 0.7071
vn 0.0000 0.0000 -1.0000
vn 1.0000 0.0000 0.0000
vn -1.0000 0.0000 0.0000
vn 0.0000 0.8575 -0.5145
vn 0.7809 0.0000 -0.6247
usemtl Black_Bed
s 1
f 2//1 4//1 1//1
f 6//1 8//1 5//1
f 1//1 7//1 6//1
f 2//1 8//1 3//1
f 10//2 12//2 9//2
f 14//3 16//3 13//3
f 10//2 9//2 19//2
f 14//2 13//2 20//2
f 18//4 8//4 7//4
f 9//5 2//5 1//5
f 13//6 6//6 5//6
f 10//7 7//7 4//7
f 14//8 3//8 8//8
f 19//8 9//8 1//8
f 20//7 13//7 5//7
f 11//6 4//6 3//6
f 15//9 22//9 16//9
f 18//4 15//4 14//4
f 13//6 22//6 17//6
f 18//10 22//10 21//10
f 1//8 24//8 6//8
f 25//2 24//2 23//2
f 5//7 25//7 2//7
f 2//4 23//4 1//4
f 6//6 26//6 5//6
f 2//1 3//1 4//1
f 6//1 7//1 8//1
f 1//1 4//1 7//1
f 2//1 5//1 8//1
f 10//2 11//2 12//2
f 14//3 15//3 16//3
f 19//2 17//2 18//2
f 18//2 10//2 19//2
f 20//2 12//2 11//2
f 11//2 14//2 20//2
f 18//4 14//4 8//4
f 9//5 12//5 2//5
f 13//6 17//6 6//6
f 10//7 18//7 7//7
f 14//8 11//8 3//8
f 1//8 6//8 19//8
f 17//8 19//8 6//8
f 5//7 2//7 20//7
f 12//7 20//7 2//7
f 11//6 10//6 4//6
f 15//9 21//9 22//9
f 18//4 21//4 15//4
f 13//6 16//6 22//6
f 18//10 17//10 22//10
f 1//8 23//8 24//8
f 25//2 26//2 24//2
f 5//7 26//7 25//7
f 2//4 25//4 23//4
f 6//6 24//6 26//6
usemtl Sheets.001
f 13//8 30//8 20//8
f 19//7 32//7 17//7
f 31//2 28//2 30//2
f 13//8 31//8 30//8
f 19//7 28//7 32//7
f 31//2 32//2 28//2
usemtl Blanket.001
f 9//7 28//7 19//7
f 12//6 27//6 9//6
f 30//2 27//2 29//2
f 20//8 29//8 12//8
f 9//7 27//7 28//7
f 12//6 29//6 27//6
f 30//2 28//2 27//2
f 20//8 30//8 29//8
