# Blender v2.78 (sub 0) OBJ File: ''
# www.blender.org
mtllib lampeChevet.mtl
o Plane.004
v -0.313670 -0.873794 0.313670
v 0.313670 -0.873794 0.313670
v -0.313670 -0.873794 -0.313670
v 0.313670 -0.873794 -0.313670
v -0.313670 -0.795376 0.313670
v 0.313670 -0.795376 0.313670
v -0.313670 -0.795376 -0.313670
v 0.313670 -0.795376 -0.313670
v -0.078417 -0.764010 0.078417
v 0.078417 -0.764010 0.078417
v -0.078417 -0.764010 -0.078417
v 0.078417 -0.764010 -0.078417
v -0.078417 0.490669 0.078417
v 0.078417 0.490669 0.078417
v -0.078417 0.490669 -0.078417
v 0.078417 0.490669 -0.078417
v -0.078417 0.647504 0.078417
v 0.078417 0.647504 0.078417
v -0.078417 0.647504 -0.078417
v 0.078417 0.647504 -0.078417
v -0.588131 0.020164 0.588131
v 0.588131 0.020164 0.588131
v -0.588131 0.020164 -0.588131
v 0.588131 0.020164 -0.588131
v -0.588131 1.274843 -0.588131
v -0.588131 1.274843 0.588131
v 0.588131 1.274843 0.588131
v 0.588131 1.274843 -0.588131
vn 0.0000 0.0000 -1.0000
vn 0.0000 0.0000 1.0000
vn 1.0000 0.0000 0.0000
vn -1.0000 0.0000 0.0000
vn 0.0000 1.0000 0.0000
vn 0.0000 -1.0000 0.0000
vn -0.1322 0.9912 0.0000
vn 0.0000 0.9912 -0.1322
vn 0.0000 0.9912 0.1322
vn 0.1322 0.9912 0.0000
usemtl Shade
s off
f 23//1 28//1 24//1
f 22//2 26//2 21//2
f 24//3 27//3 22//3
f 21//4 25//4 23//4
f 23//1 25//1 28//1
f 22//2 27//2 26//2
f 24//3 28//3 27//3
f 21//4 26//4 25//4
usemtl Material.001
f 16//3 18//3 14//3
f 18//5 19//5 17//5
f 13//4 19//4 15//4
f 15//1 20//1 16//1
f 14//2 17//2 13//2
f 16//3 20//3 18//3
f 18//5 20//5 19//5
f 13//4 17//4 19//4
f 15//1 19//1 20//1
f 14//2 18//2 17//2
usemtl Material.002
f 3//6 2//6 1//6
f 5//7 11//7 7//7
f 4//3 6//3 2//3
f 1//4 7//4 3//4
f 3//1 8//1 4//1
f 2//2 5//2 1//2
f 11//1 16//1 12//1
f 7//8 12//8 8//8
f 6//9 9//9 5//9
f 8//10 10//10 6//10
f 10//2 13//2 9//2
f 12//3 14//3 10//3
f 9//4 15//4 11//4
f 3//6 4//6 2//6
f 5//7 9//7 11//7
f 4//3 8//3 6//3
f 1//4 5//4 7//4
f 3//1 7//1 8//1
f 2//2 6//2 5//2
f 11//1 15//1 16//1
f 7//8 11//8 12//8
f 6//9 10//9 9//9
f 8//10 12//10 10//10
f 10//2 14//2 13//2
f 12//3 16//3 14//3
f 9//4 13//4 15//4
