# Blender v2.78 (sub 0) OBJ File: ''
# www.blender.org
mtllib icosahedron.mtl
o icosahedron
v 0.850651 -0.000000 0.525731
v 0.850651 0.000000 -0.525731
v 0.525731 0.850651 0.000000
v 0.525731 -0.850651 -0.000000
v -0.850651 0.000000 -0.525731
v -0.850651 -0.000000 0.525731
v -0.525731 0.850651 0.000000
v -0.525731 -0.850651 -0.000000
v 0.000000 0.525731 0.850651
v 0.000000 0.525731 -0.850651
v 0.000000 -0.525731 -0.850651
v 0.000000 -0.525731 0.850651
vn 0.9342 0.3568 0.0000
vn 0.9342 -0.3568 0.0000
vn -0.9342 0.3568 0.0000
vn -0.9342 -0.3568 0.0000
vn 0.0000 0.9342 0.3568
vn 0.0000 0.9342 -0.3568
vn 0.3568 0.0000 -0.9342
vn -0.3568 0.0000 -0.9342
vn 0.0000 -0.9342 -0.3568
vn 0.0000 -0.9342 0.3568
vn 0.3568 0.0000 0.9342
vn -0.3568 0.0000 0.9342
vn 0.5774 0.5774 -0.5774
vn 0.5774 0.5774 0.5774
vn -0.5774 0.5774 -0.5774
vn -0.5774 0.5774 0.5774
vn 0.5774 -0.5774 -0.5774
vn 0.5774 -0.5774 0.5774
vn -0.5774 -0.5774 -0.5774
vn -0.5774 -0.5774 0.5774
usemtl Material.001
s 1
f 1//1 2//1 3//1
f 1//2 4//2 2//2
f 5//3 6//3 7//3
f 6//4 5//4 8//4
f 3//5 7//5 9//5
f 7//6 3//6 10//6
f 11//7 10//7 2//7
f 10//8 11//8 5//8
f 4//9 8//9 11//9
f 8//10 4//10 12//10
f 9//11 12//11 1//11
f 12//12 9//12 6//12
f 3//13 2//13 10//13
f 1//14 3//14 9//14
f 5//15 7//15 10//15
f 7//16 6//16 9//16
f 2//17 4//17 11//17
f 4//18 1//18 12//18
f 5//19 11//19 8//19
f 6//20 8//20 12//20
