# Blender v2.78 (sub 0) OBJ File: ''
# www.blender.org
mtllib tree.mtl
o Cylinder
v 0.015674 2.466367 -0.253986
v 0.019167 3.227034 0.022684
v 0.028745 3.227034 0.026170
v 0.199847 2.466368 -0.186952
v 0.033842 3.227034 0.034997
v 0.292234 2.403041 -0.023413
v 0.032072 3.227034 0.045035
v 0.263809 2.466367 0.175798
v 0.024263 3.227034 0.051587
v 0.113670 2.466367 0.301780
v 0.014070 3.227034 0.051587
v -0.087932 2.403041 0.295584
v 0.006262 3.227034 0.045035
v -0.232462 2.466367 0.175798
v 0.004492 3.227034 0.034997
v -0.266496 2.466367 -0.017217
v 0.009589 3.227034 0.026170
v -0.174109 2.403041 -0.193148
v -0.005440 -0.809443 -0.939428
v 0.637348 -0.809443 -0.705472
v 0.979368 -1.003520 -0.113076
v 0.860586 -1.003520 0.560572
v 0.336580 -0.809443 1.000265
v -0.353069 -0.872769 0.994068
v -0.871465 -1.003520 0.560572
v -0.990247 -1.003520 -0.113076
v -0.653837 -1.066847 -0.711668
v -1.162461 -1.054853 -0.150182
v -0.862932 -0.453387 -0.094124
v -0.569643 -0.516713 -0.618026
v -0.766733 -1.118179 -0.851516
v -0.002290 -0.453387 -0.816288
v -0.006855 -1.054853 -1.119851
v -1.023078 -1.054853 0.640299
v -0.759126 -0.453387 0.494589
v -0.413802 -1.118179 1.150053
v -0.306797 -0.516713 0.872648
v 0.394483 -1.054853 1.156250
v 0.296607 -0.453387 0.878845
v 1.009368 -1.054853 0.640300
v 0.754545 -0.453387 0.494589
v 1.143143 -1.118179 -0.156378
v 0.858351 -0.453387 -0.094124
v 0.747414 -1.054853 -0.845319
v 0.559453 -0.453387 -0.611830
v -0.470645 1.692862 -0.047718
v -0.162981 2.516458 0.010068
v -0.106769 2.453131 -0.103204
v -0.309076 1.629535 -0.343475
v 0.015024 2.516458 -0.139296
v 0.010725 1.692862 -0.451635
v -0.412585 1.692862 0.281558
v -0.141511 2.516458 0.131830
v -0.162062 1.629536 0.490282
v -0.052405 2.453131 0.205109
v 0.177903 1.692862 0.496478
v 0.076845 2.516458 0.211305
v 0.434034 1.692862 0.281558
v 0.171559 2.516458 0.131830
v 0.486486 1.629535 -0.053915
v 0.193029 2.516458 0.010068
v 0.324917 1.692862 -0.337279
v 0.131209 2.516458 -0.097008
v 0.005286 0.842699 -0.671042
v 0.010529 1.745409 -0.315061
v 0.242392 1.745409 -0.230669
v 0.463775 0.842699 -0.504165
v 0.365764 1.745409 -0.016983
v 0.702124 0.779372 -0.087815
v 0.322917 1.745409 0.226012
v 0.623007 0.842699 0.398883
v 0.133901 1.745409 0.384616
v 0.249243 0.842699 0.712509
v -0.118452 1.682083 0.378420
v -0.244281 0.779373 0.706312
v -0.301860 1.745409 0.226012
v -0.612436 0.842699 0.398883
v -0.344706 1.745409 -0.016983
v -0.697161 0.842699 -0.081619
v -0.458813 0.779373 -0.510362
v -0.226943 1.682082 -0.236866
v -0.864248 0.078844 -0.105654
v -0.545192 0.894761 -0.046827
v -0.359524 0.831434 -0.384325
v -0.569569 0.015518 -0.631965
v 0.005569 0.894761 -0.508971
v 0.000399 0.078844 -0.831178
v -0.759959 0.078845 0.485799
v -0.478762 0.894761 0.329916
v -0.305499 0.015518 0.865646
v -0.191317 0.831434 0.569622
v 0.300687 0.078845 0.871843
v 0.196847 0.894761 0.575818
v 0.760756 0.078844 0.485799
v 0.489901 0.894761 0.329917
v 0.859436 0.015518 -0.111850
v 0.556331 0.894761 -0.046827
v 0.564756 0.078845 -0.625769
v 0.365054 0.894761 -0.378129
v -0.003388 -0.512941 -0.997131
v 0.001149 0.136518 -0.681816
v 0.474390 0.136519 -0.509570
v 0.669916 -0.512940 -0.752068
v 0.726197 0.136518 -0.073428
v 1.022565 -0.576267 -0.137744
v 0.638746 0.136519 0.422534
v 0.903752 -0.512940 0.574081
v 0.252955 0.136519 0.746250
v 0.354870 -0.512940 1.034648
v -0.256267 0.073192 0.740054
v -0.367254 -0.576267 1.028452
v -0.636448 0.136519 0.422534
v -0.910528 -0.512940 0.574081
v -0.723899 0.136518 -0.073428
v -1.034949 -0.512941 -0.131548
v -0.682301 -0.576267 -0.758265
v -0.477702 0.073192 -0.515766
v -0.018886 -1.314390 -0.264436
v -0.018886 -0.720161 -0.373037
v 0.231064 -0.720161 -0.282063
v 0.161257 -1.314390 -0.198870
v 0.364060 -0.720161 -0.051708
v 0.257109 -1.314390 -0.032850
v 0.317871 -0.720161 0.210242
v 0.223820 -1.314390 0.155942
v 0.114110 -0.720161 0.381218
v 0.076966 -1.314390 0.279167
v -0.151881 -0.720161 0.381218
v -0.114738 -1.314390 0.279166
v -0.355642 -0.720161 0.210242
v -0.261591 -1.314390 0.155942
v -0.401831 -0.720161 -0.051708
v -0.294880 -1.314390 -0.032850
v -0.268836 -0.720161 -0.282063
v -0.199028 -1.314390 -0.198870
v -0.018886 -1.895607 -0.373037
v 0.231064 -1.895607 -0.282063
v 0.364060 -1.895607 -0.051708
v 0.317871 -1.895607 0.210242
v 0.114110 -1.895607 0.381218
v -0.151881 -1.895607 0.381218
v -0.355642 -1.895607 0.210242
v -0.401831 -1.895607 -0.051708
v -0.268836 -1.895607 -0.282063
vn 0.3371 -0.1693 -0.9261
vn 0.8535 -0.1693 -0.4928
vn 0.9706 -0.1693 0.1711
vn 0.6335 -0.1693 0.7550
vn -0.0000 -0.1693 0.9856
vn -0.6335 -0.1693 0.7550
vn -0.9706 -0.1693 0.1711
vn 0.0000 1.0000 0.0000
vn -0.3371 -0.1693 -0.9261
vn -0.8535 -0.1693 -0.4928
vn 0.0000 -1.0000 0.0000
vn -0.8530 0.1729 -0.4925
vn -0.3369 0.1729 -0.9255
vn -0.9700 0.1729 0.1710
vn -0.6331 0.1729 0.7545
vn -0.0000 0.1729 0.9849
vn 0.6331 0.1729 0.7545
vn 0.9700 0.1729 0.1710
vn 0.8530 0.1729 -0.4925
vn 0.3369 0.1729 -0.9255
vn 0.3238 0.3221 -0.8896
vn 0.8751 0.3014 -0.3786
vn 0.8292 0.3156 -0.4613
vn 0.8754 0.3013 -0.3779
vn 0.9389 0.3111 0.1474
vn 0.9541 0.2964 0.0429
vn 0.9542 0.2962 0.0420
vn 0.6108 0.3112 0.7280
vn 0.6109 0.3112 0.7280
vn -0.1211 0.2958 0.9475
vn -0.0176 0.3103 0.9505
vn -0.1220 0.2957 0.9475
vn -0.5989 0.3144 0.7365
vn -0.5277 0.3007 0.7944
vn -0.5271 0.3006 0.7949
vn -0.9327 0.3210 0.1645
vn -0.3321 0.3237 -0.8860
vn -0.3833 0.3165 -0.8677
vn -0.3837 0.3165 -0.8675
vn -0.7885 0.3163 -0.5274
vn -0.8150 0.3232 -0.4809
vn -0.7883 0.3162 -0.5278
vn -0.0956 -0.9908 -0.0962
vn 0.0527 -0.9973 0.0520
vn 0.0902 -0.9956 -0.0271
vn -0.7667 0.4307 -0.4761
vn -0.7667 0.4310 -0.4758
vn -0.7670 0.4346 -0.4720
vn -0.3357 0.4303 -0.8379
vn -0.3360 0.4300 -0.8380
vn -0.3319 0.4339 -0.8376
vn -0.8898 0.4285 0.1569
vn -0.5510 0.4228 0.7195
vn -0.5509 0.4225 0.7197
vn -0.5534 0.4280 0.7146
vn -0.0461 0.4181 0.9072
vn -0.0456 0.4186 0.9070
vn -0.0402 0.4244 0.9046
vn 0.5844 0.4163 0.6965
vn 0.9072 0.3971 0.1387
vn 0.9071 0.3973 0.1388
vn 0.9163 0.3810 0.1236
vn 0.8015 0.4035 -0.4414
vn 0.8014 0.4036 -0.4415
vn 0.8138 0.3891 -0.4317
vn 0.3093 0.4266 -0.8499
vn -0.7892 0.3404 -0.5112
vn -0.7683 0.3276 -0.5499
vn -0.7919 0.3421 -0.5058
vn -0.4089 0.3272 -0.8519
vn -0.3669 0.3401 -0.8659
vn -0.3611 0.3418 -0.8676
vn -0.9279 0.3351 0.1636
vn -0.4821 0.3107 0.8192
vn -0.5433 0.3348 0.7699
vn -0.5507 0.3376 0.7634
vn -0.0910 0.3322 0.9388
vn -0.1706 0.3071 0.9363
vn -0.0796 0.3356 0.9386
vn 0.6078 0.3254 0.7244
vn 0.9350 0.3223 0.1478
vn 0.9463 0.3087 0.0964
vn 0.9474 0.3070 0.0902
vn 0.8507 0.3140 -0.4216
vn 0.8257 0.3263 -0.4602
vn 0.8536 0.3125 -0.4169
vn 0.3224 0.3342 -0.8857
vn 0.3209 0.3458 -0.8817
vn 0.8372 0.3273 -0.4381
vn 0.8218 0.3371 -0.4593
vn 0.8413 0.3246 -0.4322
vn 0.9309 0.3337 0.1484
vn 0.9390 0.3226 0.1194
vn 0.9410 0.3195 0.1114
vn 0.6047 0.3390 0.7207
vn -0.0648 0.3444 0.9366
vn -0.0921 0.3331 0.9384
vn -0.0564 0.3478 0.9359
vn -0.5407 0.3370 0.7707
vn -0.5590 0.3474 0.7529
vn -0.5641 0.3502 0.7477
vn -0.9230 0.3487 0.1627
vn -0.3680 0.3448 -0.8635
vn -0.3532 0.3509 -0.8673
vn -0.3488 0.3527 -0.8683
vn -0.7926 0.3519 -0.4980
vn -0.7864 0.3458 -0.5119
vn -0.7944 0.3537 -0.4938
vn -0.7962 0.3517 -0.4924
vn -0.7946 0.3489 -0.4968
vn -0.7974 0.3537 -0.4890
vn -0.3516 0.3479 -0.8691
vn -0.3470 0.3506 -0.8699
vn -0.3434 0.3526 -0.8705
vn -0.9228 0.3491 0.1627
vn -0.5630 0.3416 0.7526
vn -0.5681 0.3461 0.7466
vn -0.5718 0.3493 0.7423
vn -0.0523 0.3425 0.9381
vn -0.0607 0.3376 0.9393
vn -0.0458 0.3464 0.9370
vn 0.6048 0.3385 0.7208
vn 0.9323 0.3301 0.1478
vn 0.9376 0.3214 0.1325
vn 0.9411 0.3154 0.1220
vn 0.8321 0.3267 -0.4483
vn 0.8230 0.3343 -0.4592
vn 0.8380 0.3215 -0.4409
vn 0.3209 0.3461 -0.8816
vn 0.3114 0.4133 -0.8557
vn 0.8085 0.3903 -0.4405
vn 0.8047 0.3942 -0.4440
vn 0.8188 0.3793 -0.4309
vn 0.9108 0.3884 0.1398
vn 0.9133 0.3842 0.1349
vn 0.9204 0.3718 0.1206
vn 0.5881 0.4035 0.7009
vn -0.0506 0.4058 0.9125
vn -0.0523 0.4044 0.9131
vn -0.0439 0.4117 0.9103
vn -0.5506 0.4084 0.7281
vn -0.5515 0.4099 0.7265
vn -0.5547 0.4150 0.7211
vn -0.8960 0.4150 0.1580
vn -0.3414 0.4160 -0.8429
vn -0.3402 0.4169 -0.8429
vn -0.3358 0.4205 -0.8429
vn -0.7709 0.4176 -0.4810
vn -0.7707 0.4166 -0.4822
vn -0.7716 0.4211 -0.4767
vn 0.1976 -0.8449 0.4971
vn 0.1723 -0.8739 0.4545
vn 0.2362 -0.7935 0.5608
vn 0.4213 -0.8671 0.2660
vn 0.4542 -0.8406 0.2951
vn 0.5115 -0.7864 0.3464
vn 0.4511 -0.8889 -0.0795
vn 0.0287 -0.8331 -0.5523
vn 0.0410 -0.7918 -0.6093
vn 0.0601 -0.7179 -0.6935
vn 0.3501 -0.7969 -0.4923
vn 0.3187 -0.8437 -0.4320
vn 0.3855 -0.7318 -0.5620
vn -0.3049 -0.8804 -0.3633
vn -0.6514 -0.7571 0.0494
vn -0.6106 -0.7916 0.0215
vn -0.4465 -0.8913 -0.0787
vn -0.6167 -0.7704 0.1620
vn -0.6230 -0.7571 0.1964
vn -0.6421 -0.6711 0.3707
vn -0.1439 -0.9072 0.3954
vn -0.1295 -0.9255 0.3559
vn -0.5099 -0.8472 0.1488
vn -0.5582 -0.7902 0.2529
vn -0.5938 -0.7279 0.3428
vn -0.6300 -0.7765 0.0074
vn -0.5134 -0.8575 -0.0335
vn -0.3976 -0.9149 -0.0701
vn -0.2691 -0.9081 -0.3207
vn 0.2105 -0.8683 -0.4491
vn 0.1871 -0.9027 -0.3873
vn 0.2240 -0.8452 -0.4852
vn 0.1056 -0.9009 -0.4211
vn 0.1263 -0.8681 -0.4801
vn 0.1400 -0.8433 -0.5188
vn 0.3987 -0.9144 -0.0703
vn 0.2872 -0.9185 0.2718
vn 0.3209 -0.8949 0.3102
vn 0.3447 -0.8759 0.3375
vn 0.2474 -0.8956 0.3698
vn 0.2138 -0.9202 0.3279
vn 0.2693 -0.8775 0.3969
vn 0.2303 -0.9285 0.2914
vn 0.1983 -0.9460 0.2563
vn 0.2447 -0.9196 0.3072
vn 0.2185 -0.9456 0.2409
vn 0.2466 -0.9286 0.2773
vn 0.2602 -0.9194 0.2949
vn 0.3356 -0.9401 -0.0592
vn 0.1106 -0.9359 -0.3345
vn 0.1315 -0.9137 -0.3846
vn 0.1411 -0.9022 -0.4076
vn 0.1466 -0.9133 -0.3799
vn 0.1297 -0.9364 -0.3261
vn 0.1536 -0.9024 -0.4026
vn -0.2263 -0.9360 -0.2697
vn -0.5750 -0.8181 -0.0096
vn -0.4250 -0.9042 -0.0420
vn -0.3368 -0.9397 -0.0594
vn -0.4193 -0.8985 0.1298
vn -0.4988 -0.8301 0.2492
vn -0.5353 -0.7861 0.3090
vn -0.1107 -0.9462 0.3041
vn -0.1302 -0.9247 0.3577
vn -0.4441 -0.8812 0.1619
vn -0.5499 -0.7816 0.2946
vn -0.5790 -0.7437 0.3343
vn -0.6439 -0.7641 -0.0390
vn -0.4651 -0.8830 -0.0623
vn -0.3965 -0.9154 -0.0699
vn -0.2660 -0.9104 -0.3170
vn 0.1127 -0.8920 -0.4378
vn 0.1019 -0.9146 -0.3914
vn 0.1156 -0.8853 -0.4505
vn 0.1735 -0.9151 -0.3640
vn 0.1944 -0.8935 -0.4049
vn 0.2005 -0.8866 -0.4169
vn 0.3927 -0.9170 -0.0692
vn 0.2125 -0.9282 0.3054
vn 0.2341 -0.9114 0.3385
vn 0.2407 -0.9059 0.3486
vn 0.2949 -0.9103 0.2905
vn 0.2653 -0.9276 0.2629
vn 0.3034 -0.9049 0.2984
vn 0.2569 -0.9328 0.2529
vn 0.2303 -0.9461 0.2276
vn 0.2648 -0.9285 0.2605
vn 0.1839 -0.9465 0.2653
vn 0.2039 -0.9334 0.2953
vn 0.2102 -0.9290 0.3047
vn 0.3381 -0.9392 -0.0596
vn 0.1482 -0.9386 -0.3115
vn 0.1665 -0.9225 -0.3483
vn 0.1720 -0.9172 -0.3595
vn 0.0973 -0.9215 -0.3760
vn 0.0873 -0.9383 -0.3346
vn 0.1001 -0.9163 -0.3877
vn -0.2282 -0.9348 -0.2720
vn -0.5720 -0.8196 -0.0342
vn -0.4037 -0.9133 -0.0540
vn -0.3421 -0.9377 -0.0603
vn -0.3866 -0.9113 0.1414
vn -0.4898 -0.8312 0.2630
vn -0.5192 -0.8003 0.2998
vn -0.1133 -0.9435 0.3114
vn -0.2817 -0.5673 0.7738
vn -0.7595 -0.5864 0.2817
vn -0.5850 -0.7748 0.2396
vn -0.8004 -0.5244 0.2903
vn -0.5494 -0.8348 -0.0350
vn -0.3573 -0.9327 -0.0493
vn -0.3002 -0.9524 -0.0529
vn -0.2984 -0.9023 -0.3112
vn -0.6065 -0.5963 -0.5259
vn -0.6561 -0.5090 -0.5572
vn 0.0542 -0.5309 -0.8457
vn 0.0505 -0.5406 -0.8397
vn 0.0559 -0.5261 -0.8486
vn 0.5626 -0.6120 -0.5558
vn 0.2562 -0.8920 -0.3724
vn 0.6202 -0.5243 -0.5835
vn 0.2956 -0.9539 -0.0521
vn 0.2273 -0.9150 0.3333
vn 0.4285 -0.6159 0.6611
vn 0.4603 -0.5276 0.7140
vn 0.2254 -0.9481 0.2244
vn 0.1986 -0.9594 0.2004
vn 0.2320 -0.9450 0.2304
vn 0.8212 0.3176 -0.4742
vn 0.9352 0.3133 0.1649
vn 0.0000 0.3124 0.9499
vn -0.6098 0.3163 0.7267
vn 0.0000 1.0000 -0.0001
vn -0.3235 0.3247 -0.8888
vn -0.8192 0.3243 -0.4730
vn 0.4476 -0.8275 0.3391
vn 0.2554 -0.9653 0.0540
vn 0.1381 -0.9148 -0.3795
vn -0.0859 -0.9945 0.0594
vn 0.0761 -0.8755 0.4771
vn 0.2833 -0.9577 -0.0500
vn -0.7663 0.4264 -0.4805
vn -0.3405 0.4257 -0.8384
vn -0.5481 0.4163 0.7255
vn -0.0525 0.4112 0.9100
vn 0.8949 0.4174 0.1578
vn 0.7854 0.4214 -0.4534
vn -0.7627 0.3242 -0.5597
vn -0.4196 0.3238 -0.8480
vn -0.4665 0.3045 0.8304
vn -0.1918 0.3000 0.9345
vn 0.9308 0.3265 0.1641
vn 0.8175 0.3300 -0.4720
vn 0.8138 0.3419 -0.4699
vn 0.9264 0.3392 0.1634
vn -0.1053 0.3276 0.9389
vn -0.5323 0.3322 0.7786
vn -0.3749 0.3420 -0.8617
vn -0.7834 0.3430 -0.5183
vn -0.7930 0.3462 -0.5012
vn -0.3563 0.3451 -0.8683
vn -0.5580 0.3372 0.7582
vn -0.0692 0.3324 0.9406
vn 0.9266 0.3388 0.1634
vn 0.8139 0.3418 -0.4699
vn 0.7905 0.4084 -0.4564
vn 0.9006 0.4045 0.1588
vn -0.0605 0.3972 0.9158
vn -0.5465 0.4021 0.7346
vn -0.3467 0.4116 -0.8428
vn -0.7697 0.4123 -0.4874
vn 0.1401 -0.9059 0.3996
vn 0.3722 -0.9010 0.2231
vn 0.0137 -0.8771 -0.4802
vn 0.2883 -0.8812 -0.3747
vn -0.7320 -0.6725 0.1093
vn -0.5794 -0.8150 0.0117
vn -0.4691 -0.8803 0.0708
vn -0.6875 -0.7256 0.0295
vn 0.1771 -0.9156 -0.3610
vn 0.0957 -0.9148 -0.3924
vn 0.2690 -0.9298 0.2510
vn 0.1971 -0.9311 0.3070
vn 0.1878 -0.9512 0.2449
vn 0.2088 -0.9509 0.2283
vn 0.1040 -0.9422 -0.3186
vn 0.1248 -0.9423 -0.3105
vn -0.6204 -0.7843 0.0012
vn -0.3836 -0.9201 0.0796
vn -0.4135 -0.9017 0.1260
vn -0.6772 -0.7350 -0.0339
vn 0.0999 -0.9185 -0.3826
vn 0.1693 -0.9191 -0.3557
vn 0.2077 -0.9316 0.2982
vn 0.2592 -0.9310 0.2571
vn 0.2248 -0.9487 0.2223
vn 0.1796 -0.9491 0.2588
vn 0.1444 -0.9417 -0.3039
vn 0.0853 -0.9413 -0.3267
vn -0.6039 -0.7965 -0.0299
vn -0.3591 -0.9267 0.1106
vn -0.5190 -0.8253 0.2223
vn -0.5790 -0.8147 -0.0325
vn -0.2001 -0.9503 -0.2385
vn 0.0491 -0.5444 -0.8374
vn 0.1576 -0.9392 -0.3050
vn 0.1593 -0.9614 0.2243
vn 0.1940 -0.9612 0.1962
usemtl Bark
s 1
f 119//1 121//1 118//1
f 120//2 123//2 121//2
f 122//3 125//3 123//3
f 125//4 126//4 127//4
f 127//5 128//5 129//5
f 129//6 130//6 131//6
f 130//7 133//7 131//7
f 119//8 128//8 124//8
f 135//9 119//9 118//9
f 133//10 134//10 135//10
f 137//11 142//11 143//11
f 133//12 144//12 143//12
f 135//13 136//13 144//13
f 131//14 143//14 142//14
f 129//15 142//15 141//15
f 127//16 141//16 140//16
f 125//17 140//17 139//17
f 123//18 139//18 138//18
f 137//19 123//19 138//19
f 118//20 137//20 136//20
f 119//1 120//1 121//1
f 120//2 122//2 123//2
f 122//3 124//3 125//3
f 125//4 124//4 126//4
f 127//5 126//5 128//5
f 129//6 128//6 130//6
f 130//7 132//7 133//7
f 122//8 120//8 124//8
f 119//8 134//8 132//8
f 132//8 130//8 119//8
f 128//8 126//8 124//8
f 124//8 120//8 119//8
f 119//8 130//8 128//8
f 135//9 134//9 119//9
f 133//10 132//10 134//10
f 144//11 136//11 143//11
f 137//11 138//11 139//11
f 139//11 140//11 141//11
f 141//11 142//11 137//11
f 143//11 136//11 137//11
f 137//11 139//11 141//11
f 133//12 135//12 144//12
f 135//13 118//13 136//13
f 131//14 133//14 143//14
f 129//15 131//15 142//15
f 127//16 129//16 141//16
f 125//17 127//17 140//17
f 123//18 125//18 139//18
f 137//19 121//19 123//19
f 118//20 121//20 137//20
usemtl Leaves
f 2//21 4//21 1//21
f 4//22 5//23 6//24
f 5//25 8//26 6//27
f 7//28 10//29 8//29
f 10//30 11//31 12//32
f 11//33 14//34 12//35
f 14//36 15//36 16//36
f 2//8 9//8 7//8
f 17//37 1//38 18//39
f 16//40 17//41 18//42
f 21//43 24//44 19//45
f 28//46 30//47 31//48
f 30//49 33//50 31//51
f 34//52 29//52 28//52
f 37//53 34//54 36//55
f 38//56 37//57 36//58
f 40//59 39//59 38//59
f 43//60 40//61 42//62
f 44//63 43//64 42//65
f 32//66 44//66 33//66
f 46//67 48//68 49//69
f 48//70 51//71 49//72
f 52//73 47//73 46//73
f 55//74 52//75 54//76
f 56//77 55//78 54//79
f 58//80 57//80 56//80
f 61//81 58//82 60//83
f 62//84 61//85 60//86
f 50//87 62//87 51//87
f 65//88 67//88 64//88
f 67//89 68//90 69//91
f 68//92 71//93 69//94
f 71//95 72//95 73//95
f 73//96 74//97 75//98
f 74//99 77//100 75//101
f 77//102 78//102 79//102
f 81//103 64//104 80//105
f 79//106 81//107 80//108
f 82//109 84//110 85//111
f 84//112 87//113 85//114
f 88//115 83//115 82//115
f 91//116 88//117 90//118
f 92//119 91//120 90//121
f 94//122 93//122 92//122
f 97//123 94//124 96//125
f 98//126 97//127 96//128
f 86//129 98//129 87//129
f 101//130 103//130 100//130
f 103//131 104//132 105//133
f 104//134 107//135 105//136
f 107//137 108//137 109//137
f 109//138 110//139 111//140
f 110//141 113//142 111//143
f 113//144 114//144 115//144
f 117//145 100//146 116//147
f 115//148 117//149 116//150
f 16//151 48//152 47//153
f 48//154 1//155 50//156
f 14//157 47//157 53//157
f 55//158 14//159 53//160
f 10//161 55//162 57//163
f 59//164 10//164 57//164
f 61//165 8//166 59//167
f 63//168 6//169 61//170
f 50//171 4//171 63//171
f 65//172 62//172 66//172
f 66//173 60//174 68//175
f 68//176 58//177 70//178
f 70//179 56//179 72//179
f 56//180 74//181 72//182
f 74//183 52//184 76//185
f 52//186 78//186 76//186
f 81//187 51//188 65//189
f 46//190 81//191 78//192
f 79//193 84//194 83//195
f 84//196 64//197 86//198
f 77//199 83//199 89//199
f 91//200 77//201 89//202
f 73//203 91//204 93//205
f 95//206 73//206 93//206
f 97//207 71//208 95//209
f 99//210 69//211 97//212
f 86//213 67//213 99//213
f 101//214 98//214 102//214
f 102//215 96//216 104//217
f 104//218 94//219 106//220
f 106//221 92//221 108//221
f 92//222 110//223 108//224
f 110//225 88//226 112//227
f 88//228 114//228 112//228
f 117//229 87//230 101//231
f 82//232 117//233 114//234
f 115//235 30//236 29//237
f 30//238 100//239 32//240
f 113//241 29//241 35//241
f 37//242 113//243 35//244
f 109//245 37//246 39//247
f 41//248 109//248 39//248
f 43//249 107//250 41//251
f 45//252 105//253 43//254
f 32//255 103//255 45//255
f 19//256 44//256 20//256
f 44//257 21//258 20//259
f 21//260 40//261 22//262
f 22//263 38//264 23//265
f 38//266 24//267 23//268
f 36//269 25//270 24//271
f 34//272 26//272 25//272
f 27//273 33//274 19//275
f 28//276 27//277 26//278
f 2//21 3//21 4//21
f 4//22 3//279 5//23
f 5//25 7//280 8//26
f 7//28 9//28 10//29
f 10//30 9//281 11//31
f 11//33 13//282 14//34
f 14//36 13//36 15//36
f 5//8 3//8 7//8
f 2//8 17//8 11//8
f 15//8 13//283 11//8
f 11//8 9//8 2//8
f 7//8 3//8 2//8
f 17//8 15//8 11//8
f 17//37 2//284 1//38
f 16//40 15//285 17//41
f 27//286 19//45 26//287
f 20//288 21//43 19//45
f 22//289 23//290 24//44
f 24//44 25//291 26//287
f 26//287 19//45 24//44
f 21//43 22//289 24//44
f 28//46 29//292 30//47
f 30//49 32//293 33//50
f 34//52 35//52 29//52
f 37//53 35//294 34//54
f 38//56 39//295 37//57
f 40//59 41//59 39//59
f 43//60 41//296 40//61
f 44//63 45//297 43//64
f 32//66 45//66 44//66
f 46//67 47//298 48//68
f 48//70 50//299 51//71
f 52//73 53//73 47//73
f 55//74 53//300 52//75
f 56//77 57//301 55//78
f 58//80 59//80 57//80
f 61//81 59//302 58//82
f 62//84 63//303 61//85
f 50//87 63//87 62//87
f 65//88 66//88 67//88
f 67//89 66//304 68//90
f 68//92 70//305 71//93
f 71//95 70//95 72//95
f 73//96 72//306 74//97
f 74//99 76//307 77//100
f 77//102 76//102 78//102
f 81//103 65//308 64//104
f 79//106 78//309 81//107
f 82//109 83//310 84//110
f 84//112 86//311 87//113
f 88//115 89//115 83//115
f 91//116 89//312 88//117
f 92//119 93//313 91//120
f 94//122 95//122 93//122
f 97//123 95//314 94//124
f 98//126 99//315 97//127
f 86//129 99//129 98//129
f 101//130 102//130 103//130
f 103//131 102//316 104//132
f 104//134 106//317 107//135
f 107//137 106//137 108//137
f 109//138 108//318 110//139
f 110//141 112//319 113//142
f 113//144 112//144 114//144
f 117//145 101//320 100//146
f 115//148 114//321 117//149
f 16//151 18//322 48//152
f 48//154 18//323 1//155
f 14//157 16//157 47//157
f 55//158 12//324 14//159
f 10//161 12//325 55//162
f 59//164 8//164 10//164
f 61//165 6//326 8//166
f 63//168 4//327 6//169
f 50//171 1//171 4//171
f 65//172 51//172 62//172
f 66//173 62//328 60//174
f 68//176 60//329 58//177
f 70//179 58//179 56//179
f 56//180 54//330 74//181
f 74//183 54//331 52//184
f 52//186 46//186 78//186
f 81//187 49//332 51//188
f 46//190 49//333 81//191
f 79//193 80//334 84//194
f 84//196 80//335 64//197
f 77//199 79//199 83//199
f 91//200 75//336 77//201
f 73//203 75//337 91//204
f 95//206 71//206 73//206
f 97//207 69//338 71//208
f 99//210 67//339 69//211
f 86//213 64//213 67//213
f 101//214 87//214 98//214
f 102//215 98//340 96//216
f 104//218 96//341 94//219
f 106//221 94//221 92//221
f 92//222 90//342 110//223
f 110//225 90//343 88//226
f 88//228 82//228 114//228
f 117//229 85//344 87//230
f 82//232 85//345 117//233
f 115//235 116//346 30//236
f 30//238 116//347 100//239
f 113//241 115//241 29//241
f 37//242 111//348 113//243
f 109//245 111//349 37//246
f 41//248 107//248 109//248
f 43//249 105//350 107//250
f 45//252 103//351 105//253
f 32//255 100//255 103//255
f 19//256 33//256 44//256
f 44//257 42//352 21//258
f 21//260 42//353 40//261
f 22//263 40//354 38//264
f 38//266 36//355 24//267
f 36//269 34//356 25//270
f 34//272 28//272 26//272
f 27//273 31//357 33//274
f 28//276 31//358 27//277
