# Blender v2.78 (sub 0) OBJ File: 'canyon_1.blend'
# www.blender.org
mtllib canyon_1.mtl
o Grid_Grid.003
v -10.173311 8.055630 8.968466
v -7.934343 8.060438 8.032424
v -5.822665 8.040497 8.074272
v -3.506646 8.055630 8.968466
v -1.344819 8.054423 9.605401
v 0.817963 8.054060 10.066072
v 3.157757 8.052844 9.545152
v 5.382243 8.055630 8.968466
v 7.947033 8.042575 9.370323
v 9.931190 8.039471 11.547704
v -10.173311 8.055630 6.746244
v -7.934343 8.060438 5.810202
v -5.822665 8.040497 5.852050
v -3.506646 8.055630 6.746244
v -1.344819 8.054423 7.383179
v 0.817963 8.054060 7.843850
v 3.157757 8.052844 7.322929
v 5.382243 8.055630 6.746244
v 7.947033 8.042575 7.148101
v 9.931190 8.039471 9.325482
v -9.965590 8.076062 3.736977
v -7.673126 8.088360 3.455671
v -5.766459 8.044603 2.868831
v -3.489494 8.055085 3.599385
v -1.489291 8.040245 5.720730
v 0.789306 8.050138 5.305724
v 3.005245 8.036176 5.036629
v 5.271131 8.045655 5.313004
v 7.876194 8.037400 5.885007
v 10.022429 8.046136 5.867924
v -10.000000 0.000000 3.333333
v -7.761031 0.004809 2.397291
v -5.649353 -0.015132 2.439139
v -3.333333 0.000000 3.333333
v -1.171506 -0.001206 3.970269
v 0.991276 -0.001570 4.430939
v 3.331069 -0.002785 3.910019
v 5.555556 0.000000 3.333333
v 8.120345 -0.013054 3.735190
v 10.104503 -0.016158 5.912571
v -10.000000 0.000000 1.111111
v -7.761031 0.004809 0.175069
v -5.649353 -0.015132 0.216917
v -3.333333 0.000000 1.111111
v -1.171506 -0.001206 1.748047
v 0.991276 -0.001570 2.208717
v 3.331069 -0.002785 1.687797
v 5.555556 0.000000 1.111111
v 8.120345 -0.013054 1.512968
v 10.104503 -0.016158 3.690350
v -10.000000 0.000000 -1.111112
v -7.761031 0.004809 -2.047153
v -5.649353 -0.015132 -2.005306
v -3.333333 0.000000 -1.111112
v -1.171506 -0.001206 -0.474176
v 0.991276 -0.001570 -0.013506
v 3.331069 -0.002785 -0.534426
v 5.555556 0.000000 -1.111112
v 8.120345 -0.013054 -0.709255
v 10.104503 -0.016158 1.468127
v -10.000000 0.000000 -3.333334
v -7.761031 0.004809 -4.269375
v -5.649353 -0.015132 -4.227528
v -3.333333 0.000000 -3.333334
v -1.171506 -0.001206 -2.696398
v 0.991276 -0.001570 -2.235728
v 3.331069 -0.002785 -2.756648
v 5.555556 0.000000 -3.333334
v 8.120345 -0.013054 -2.931477
v 10.104503 -0.016158 -0.754095
v -9.948550 8.141243 -3.451438
v -7.470514 8.165322 -6.928186
v -5.511151 8.128982 -6.854939
v -3.401057 8.125502 -4.547642
v -1.266560 8.122284 -3.546438
v 1.011938 8.132180 -3.956360
v 3.325005 8.125338 -5.530736
v 5.576219 8.133751 -5.053966
v 8.093914 8.117255 -4.014472
v 10.125165 8.117592 -2.474727
v -9.979338 8.133751 -7.276188
v -7.740369 8.138559 -8.212231
v -5.628690 8.118618 -8.170382
v -3.312671 8.133751 -7.276188
v -1.150844 8.132545 -6.639253
v 1.011938 8.132180 -6.178582
v 3.351732 8.130965 -6.699502
v 5.576219 8.133751 -7.276188
v 8.141008 8.120696 -6.874331
v 10.125165 8.117592 -4.696950
v -9.979338 8.133751 -9.498410
v -7.740369 8.138559 -10.434452
v -5.628690 8.118618 -10.392605
v -3.312671 8.133751 -9.498410
v -1.150844 8.132545 -8.861475
v 1.011938 8.132180 -8.400805
v 3.351732 8.130965 -8.921724
v 5.576219 8.133751 -9.498410
v 8.141008 8.120696 -9.096554
v 10.125165 8.117592 -6.919172
vn -0.0021 1.0000 0.0000
vn 0.0094 1.0000 0.0000
vn -0.0065 1.0000 0.0000
vn 0.0006 1.0000 0.0000
vn 0.0002 1.0000 0.0000
vn 0.0005 1.0000 0.0000
vn -0.0013 1.0000 0.0000
vn 0.0051 1.0000 0.0000
vn 0.0016 1.0000 0.0000
vn 0.0007 1.0000 0.0068
vn 0.0092 0.9999 0.0129
vn -0.0050 1.0000 0.0013
vn 0.0076 1.0000 -0.0001
vn -0.0058 1.0000 -0.0080
vn 0.0002 1.0000 -0.0015
vn -0.0033 1.0000 -0.0071
vn 0.0048 1.0000 -0.0073
vn -0.0041 1.0000 -0.0039
vn -0.1219 0.0501 -0.9913
vn -0.2891 0.1274 -0.9488
vn 0.3593 0.0549 -0.9316
vn 0.2824 0.0371 -0.9586
vn -0.1763 0.2027 -0.9632
vn -0.1192 0.1043 -0.9874
vn 0.1193 0.1425 -0.9826
vn 0.1514 0.2412 -0.9586
vn 0.7246 0.1982 -0.6600
vn 0.3857 0.0109 0.9226
vn -0.0159 0.3103 0.9505
vn -0.7189 0.2244 0.6578
vn -0.4209 0.1306 0.8977
vn 0.1757 0.1045 0.9789
vn 0.2129 0.2017 0.9560
vn 0.2379 0.3139 0.9192
vn -0.3734 0.1929 0.9074
vn -0.6008 0.1036 0.7926
vn -0.0123 0.9999 -0.0019
vn 0.0099 0.9997 -0.0229
vn -0.0036 1.0000 -0.0076
vn -0.0003 1.0000 0.0030
vn -0.0038 1.0000 0.0032
vn 0.0030 1.0000 0.0000
vn -0.0047 1.0000 0.0047
vn 0.0002 1.0000 0.0012
vn -0.0040 0.9999 0.0114
vn 0.0235 0.9997 0.0018
vn -0.0065 1.0000 -0.0002
vn 0.0032 1.0000 -0.0088
vn 0.0005 1.0000 -0.0016
vn 0.0054 1.0000 -0.0076
vn -0.0030 1.0000 -0.0067
vn 0.0058 1.0000 -0.0044
vn -0.0005 1.0000 0.0019
vn -0.3830 0.1240 -0.9154
vn 0.0203 0.0535 -0.9984
vn 0.3051 0.0373 -0.9516
vn 0.7169 0.1752 -0.6748
vn 0.2071 0.1108 -0.9720
vn -0.2155 0.1270 -0.9682
vn -0.2449 0.2235 -0.9434
vn 0.2080 0.2582 -0.9434
vn -0.0079 -0.0056 -1.0000
vn 0.8035 0.1583 0.5738
vn -0.0299 0.3074 0.9511
vn -0.3576 0.1351 0.9240
vn -0.2812 0.0966 0.9548
vn -0.2040 0.2031 0.9577
vn 0.5420 0.2718 0.7952
vn -0.2036 0.2031 0.9578
vn -0.1528 0.1300 0.9797
vn -0.7315 0.1429 0.6667
vn -0.0100 0.9998 -0.0187
vn 0.0189 0.9998 -0.0096
vn -0.0016 1.0000 0.0030
vn -0.0000 1.0000 0.0033
vn 0.0016 1.0000 0.0049
vn 0.0060 1.0000 0.0013
vn -0.0002 1.0000 0.0000
usemtl Material.001
s off
f 2//1 11//1 1//1
f 2//2 13//2 12//2
f 3//3 14//3 13//3
f 4//4 15//4 14//4
f 5//5 16//5 15//5
f 7//6 16//6 6//6
f 8//7 17//7 7//7
f 8//8 19//8 18//8
f 9//9 20//9 19//9
f 12//10 21//10 11//10
f 13//11 22//11 12//11
f 13//12 24//12 23//12
f 14//13 25//13 24//13
f 15//14 26//14 25//14
f 17//15 26//15 16//15
f 17//16 28//16 27//16
f 18//17 29//17 28//17
f 19//18 30//18 29//18
f 22//19 31//19 21//19
f 23//20 32//20 22//20
f 23//21 34//21 33//21
f 24//22 35//22 34//22
f 26//23 35//23 25//23
f 27//24 36//24 26//24
f 28//25 37//25 27//25
f 28//26 39//26 38//26
f 29//27 40//27 39//27
f 32//1 41//1 31//1
f 32//2 43//2 42//2
f 33//3 44//3 43//3
f 34//4 45//4 44//4
f 35//5 46//5 45//5
f 37//6 46//6 36//6
f 38//7 47//7 37//7
f 38//8 49//8 48//8
f 39//9 50//9 49//9
f 42//1 51//1 41//1
f 42//2 53//2 52//2
f 43//3 54//3 53//3
f 44//4 55//4 54//4
f 45//5 56//5 55//5
f 47//6 56//6 46//6
f 48//7 57//7 47//7
f 48//8 59//8 58//8
f 49//9 60//9 59//9
f 52//1 61//1 51//1
f 52//2 63//2 62//2
f 53//3 64//3 63//3
f 54//4 65//4 64//4
f 55//5 66//5 65//5
f 57//6 66//6 56//6
f 58//7 67//7 57//7
f 58//8 69//8 68//8
f 59//9 70//9 69//9
f 62//28 71//28 61//28
f 63//29 72//29 62//29
f 63//30 74//30 73//30
f 64//31 75//31 74//31
f 65//32 76//32 75//32
f 67//33 76//33 66//33
f 68//34 77//34 67//34
f 68//35 79//35 78//35
f 69//36 80//36 79//36
f 72//37 81//37 71//37
f 72//38 83//38 82//38
f 73//39 84//39 83//39
f 74//40 85//40 84//40
f 76//41 85//41 75//41
f 77//42 86//42 76//42
f 78//43 87//43 77//43
f 78//8 89//8 88//8
f 79//44 90//44 89//44
f 82//1 91//1 81//1
f 82//2 93//2 92//2
f 83//3 94//3 93//3
f 84//4 95//4 94//4
f 85//5 96//5 95//5
f 87//6 96//6 86//6
f 88//7 97//7 87//7
f 88//8 99//8 98//8
f 89//9 100//9 99//9
f 2//1 12//1 11//1
f 2//2 3//2 13//2
f 3//3 4//3 14//3
f 4//4 5//4 15//4
f 5//5 6//5 16//5
f 7//6 17//6 16//6
f 8//7 18//7 17//7
f 8//8 9//8 19//8
f 9//9 10//9 20//9
f 12//45 22//45 21//45
f 13//46 23//46 22//46
f 13//47 14//47 24//47
f 14//48 15//48 25//48
f 15//49 16//49 26//49
f 17//50 27//50 26//50
f 17//51 18//51 28//51
f 18//52 19//52 29//52
f 19//53 20//53 30//53
f 22//54 32//54 31//54
f 23//55 33//55 32//55
f 23//56 24//56 34//56
f 24//57 25//57 35//57
f 26//58 36//58 35//58
f 27//59 37//59 36//59
f 28//60 38//60 37//60
f 28//61 29//61 39//61
f 29//62 30//62 40//62
f 32//1 42//1 41//1
f 32//2 33//2 43//2
f 33//3 34//3 44//3
f 34//4 35//4 45//4
f 35//5 36//5 46//5
f 37//6 47//6 46//6
f 38//7 48//7 47//7
f 38//8 39//8 49//8
f 39//9 40//9 50//9
f 42//1 52//1 51//1
f 42//2 43//2 53//2
f 43//3 44//3 54//3
f 44//4 45//4 55//4
f 45//5 46//5 56//5
f 47//6 57//6 56//6
f 48//7 58//7 57//7
f 48//8 49//8 59//8
f 49//9 50//9 60//9
f 52//1 62//1 61//1
f 52//2 53//2 63//2
f 53//3 54//3 64//3
f 54//4 55//4 65//4
f 55//5 56//5 66//5
f 57//6 67//6 66//6
f 58//7 68//7 67//7
f 58//8 59//8 69//8
f 59//9 60//9 70//9
f 62//63 72//63 71//63
f 63//64 73//64 72//64
f 63//65 64//65 74//65
f 64//66 65//66 75//66
f 65//67 66//67 76//67
f 67//68 77//68 76//68
f 68//69 78//69 77//69
f 68//70 69//70 79//70
f 69//71 70//71 80//71
f 72//72 82//72 81//72
f 72//73 73//73 83//73
f 73//74 74//74 84//74
f 74//75 75//75 85//75
f 76//5 86//5 85//5
f 77//76 87//76 86//76
f 78//7 88//7 87//7
f 78//77 79//77 89//77
f 79//78 80//78 90//78
f 82//1 92//1 91//1
f 82//2 83//2 93//2
f 83//3 84//3 94//3
f 84//4 85//4 95//4
f 85//5 86//5 96//5
f 87//6 97//6 96//6
f 88//7 98//7 97//7
f 88//8 89//8 99//8
f 89//9 90//9 100//9
